# xmcd
#
# Track frame offsets: 
#        150
#        2617
#        12724
#        25614
#        36332
#        51588
#        62667
#        81596
#        98131
#        116896
#        127751
#        144408
#        158398
#
# Disc length: 2377 seconds
#
# Revision: 2
# Processed by: cddbd v1.5.2PL0 Copyright (c) Steve Scherf et al.
# Submitted via: ExactAudioCopyFreeDBPlugin 1.0
#
DISCID=a609470d
DTITLE=The Knitters - The Modern Sounds of . . . The Knitters
DYEAR=2005
DGENRE=Country
TTITLE0=Easy Goin' Sunday
TTITLE1=Give Me My Flowers
TTITLE2=Try Anymore (Why Don't We Even)
TTITLE3=In This House That I Call Home
TTITLE4=Dry River
TTITLE5=Skin Deep Town
TTITLE6=Rank Stranger
TTITLE7=The New Call of the Wreckin' Ball
TTITLE8=Long Chain On
TTITLE9=I'll Go Down Swinging
TTITLE10=Burning House of Love
TTITLE11=Little Margaret
TTITLE12=Born to Be Wild
EXTD=YEAR: 2005
EXTT0=
EXTT1=
EXTT2=
EXTT3=
EXTT4=
EXTT5=
EXTT6=
EXTT7=
EXTT8=
EXTT9=
EXTT10=
EXTT11=
EXTT12=
PLAYORDER=
